<svg xmlns="http://www.w3.org/2000/svg" viewBox="0 0 640 360"><defs><linearGradient id="s" x1="0" y1="0" x2="0" y2="1"><stop stop-color="#8ec5f2"/><stop offset="1" stop-color="#e7f2fb"/></linearGradient><linearGradient id="g" x1="0" y1="0" x2="1" y2="1"><stop stop-color="#294f71"/><stop offset="1" stop-color="#6c8da7"/></linearGradient></defs><rect width="640" height="360" fill="url(#s)"/><rect y="286" width="640" height="74" fill="#88a96a"/><rect x="105" y="112" width="430" height="190" rx="6" fill="#e7dfd2"/><rect x="164" y="82" width="312" height="220" rx="4" fill="#efe8dd"/><rect x="264" y="68" width="112" height="234" rx="16" fill="#ddd2c4"/><rect x="287" y="95" width="66" height="160" rx="8" fill="url(#g)"/><g fill="#3c6682"><rect x="195" y="126" width="42" height="74"/><rect x="403" y="126" width="42" height="74"/></g><rect x="90" y="298" width="460" height="16" rx="8" fill="#cfc3b5"/><rect x="74" y="72" width="5" height="238" fill="#cfd4da"/><path d="M79 78h78v49H79z" fill="#009543"/><path d="M79 78l78 49V78z" fill="#003580"/><path d="M79 127l78-49v49z" fill="#d21034"/><path d="M79 96l78 13v7L79 103z" fill="#fff"/><circle cx="144" cy="91" r="8" fill="#ffce00"/><g fill="#4c7a44"><circle cx="73" cy="294" r="34"/><circle cx="567" cy="292" r="38"/></g></svg>